<svg width="111" height="113" viewBox="0 0 111 113" xmlns="http://www.w3.org/2000/svg"><title>D64C2181-0175-4082-89BB-810CCDDF8F9C</title><path d="M54.107 56.46c-12.992 0-23.525-12.64-23.525-28.23C30.582 12.639 41.115 0 54.107 0 67.1 0 77.632 12.639 77.632 28.23c0 15.59-10.532 28.23-23.525 28.23zm0-4.705c10.394 0 18.82-10.533 18.82-23.525 0-12.993-8.426-23.525-18.82-23.525s-18.82 10.532-18.82 23.525c0 12.992 8.426 23.525 18.82 23.525zm30.629 54.353l21.953-34.65 3.967 2.117L85.966 113 63.882 96.19l2.602-4.027 18.25 13.945zm-6.994-41.525c-7.14-2.19-15.16-3.418-23.635-3.418C24.225 61.165 0 76.437 0 95.275l4.174.062s0-5.112 4.182-11.463c4.183-6.351 13.941-12.857 24.579-15.49 10.637-2.634 12.088-3.099 21.172-3.099 9.085 0 20.238 2.479 20.238 2.479l3.397.62v-3.801z" fill="#0073CF" fill-rule="evenodd"/></svg>