<?xml version="1.0" encoding="utf-8"?>
<!-- Generator: Adobe Illustrator 21.1.0, SVG Export Plug-In . SVG Version: 6.00 Build 0)  -->
<svg version="1.1" id="Calque_1" xmlns="http://www.w3.org/2000/svg" xmlns:xlink="http://www.w3.org/1999/xlink" x="0px" y="0px"
	 viewBox="0 0 111 113" style="enable-background:new 0 0 111 113;" xml:space="preserve">
<style type="text/css">
	.st0{fill:#46B0FF;}
</style>
<title>D64C2181-0175-4082-89BB-810CCDDF8F9C</title>
<path class="st0" d="M54.1,56.5c-13,0-23.5-12.6-23.5-28.2C30.6,12.6,41.1,0,54.1,0c13,0,23.5,12.6,23.5,28.2
	C77.6,43.8,67.1,56.5,54.1,56.5z M54.1,51.8c10.4,0,18.8-10.5,18.8-23.5c0-13-8.4-23.5-18.8-23.5S35.3,15.2,35.3,28.2
	C35.3,41.2,43.7,51.8,54.1,51.8z M84.7,106.1l22-34.7l4,2.1L86,113L63.9,96.2l2.6-4L84.7,106.1L84.7,106.1z M77.7,64.6
	c-7.1-2.2-15.2-3.4-23.6-3.4C24.2,61.2,0,76.4,0,95.3l4.2,0.1c0,0,0-5.1,4.2-11.5c4.2-6.4,13.9-12.9,24.6-15.5
	c10.6-2.6,12.1-3.1,21.2-3.1c9.1,0,20.2,2.5,20.2,2.5l3.4,0.6C77.7,68.4,77.7,64.6,77.7,64.6z"/>
</svg>
