<svg width="137" height="126" viewBox="0 0 137 126" xmlns="http://www.w3.org/2000/svg"><title>C317EF64-6FD9-4578-88B9-06B5BC98E41F</title><path d="M40.858.208h54.548v10.434h35.519v63.236l5.642-.397v5.158H.049V73.48h5.38V10.642h35.429V.208zm5.43 5.228v5.229H89.94V5.436h-43.65zM10.822 15.894V73.41h114.583V15.894H10.822zm40.923 104.575h32.738v5.228H51.745v-5.228zm13.64-41.83h5.457v41.83h-5.457v-41.83zM53.081 65.305l-25.89-9.813 1.123-2.717 23.815 8.738 24.876-26.859 14.89 13.111 17.141-24.29V28.8L92.353 52.775 77.005 39.49 53.081 65.305z" fill="#0073CF" fill-rule="evenodd"/></svg>