<?xml version="1.0" encoding="utf-8"?>
<!-- Generator: Adobe Illustrator 21.1.0, SVG Export Plug-In . SVG Version: 6.00 Build 0)  -->
<svg version="1.1" id="Calque_1" xmlns="http://www.w3.org/2000/svg" xmlns:xlink="http://www.w3.org/1999/xlink" x="0px" y="0px"
	 viewBox="0 0 137 126" style="enable-background:new 0 0 137 126;" xml:space="preserve">
<style type="text/css">
	.st0{fill:#46B0FF;}
</style>
<title>C317EF64-6FD9-4578-88B9-06B5BC98E41F</title>
<path class="st0" d="M40.9,0.2h54.5v10.4h35.5v63.2l5.6-0.4v5.2H0v-5.2h5.4V10.6h35.4V0.2z M46.3,5.4v5.2h43.7V5.4L46.3,5.4
	L46.3,5.4z M10.8,15.9v57.5h114.6V15.9H10.8z M51.7,120.5h32.7v5.2H51.7V120.5z M65.4,78.6h5.5v41.8h-5.5V78.6z M53.1,65.3
	l-25.9-9.8l1.1-2.7l23.8,8.7L77,34.7l14.9,13.1L109,23.5v5.3l-16.7,24L77,39.5L53.1,65.3z"/>
</svg>
