<svg width="102" height="128" viewBox="0 0 102 128" xmlns="http://www.w3.org/2000/svg"><title>5BE09F72-7958-46C4-A1FF-D0937D96C361</title><path d="M0 25.976h101.676v101.676H0V25.976zm5.084 0v96.592h91.508V25.976H5.084zm26.412 39.688h48.852c.553 0 .993.45.993 1.004v3.075a1 1 0 0 1-.993 1.005H31.496a.995.995 0 0 1-.993-1.005v-3.075a1 1 0 0 1 .993-1.004zm-11.16 0h5.083v5.084h-5.084v-5.084zm11.16 18.645h48.852c.553 0 .993.45.993 1.005v3.075a1 1 0 0 1-.993 1.004H31.496a.995.995 0 0 1-.993-1.004v-3.075a1 1 0 0 1 .993-1.005zm-11.16 0h5.083v5.084h-5.084V84.31zm11.16 18.646h48.852c.553 0 .993.45.993 1.004v3.075a1 1 0 0 1-.993 1.005H31.496a.995.995 0 0 1-.993-1.005v-3.075a1 1 0 0 1 .993-1.004zm-11.16 0h5.083v5.084h-5.084v-5.084zM47.25 42.71L24.742 21.494c-.398-.375-1.078-.402-1.504-.07l-2.304 1.792a.869.869 0 0 0-.087 1.322L47.25 51.525 82.705 3.967a1.101 1.101 0 0 0-.146-1.458L79.997.235a.897.897 0 0 0-1.339.146L47.25 42.71z" fill="#0073CF" fill-rule="evenodd"/></svg>